<svg xmlns="http://www.w3.org/2000/svg" version="1.1" xmlns:xlink="http://www.w3.org/1999/xlink" xmlns:svgjs="http://svgjs.dev/svgjs" width="1000" height="1000" viewBox="0 0 1000 1000"><rect width="1000" height="1000" fill="#000000"></rect><g transform="matrix(0.7,0,0,0.7,149.84897959183667,150.19913061224486)"><svg viewBox="0 0 343 343" data-background-color="#ffffff" preserveAspectRatio="xMidYMid meet" height="999" width="1000" xmlns="http://www.w3.org/2000/svg" xmlns:xlink="http://www.w3.org/1999/xlink"><g id="tight-bounds" transform="matrix(1,0,0,1,0.0740000000000407,0.07400000000001228)"><svg viewBox="0 0 342.85155851775386 342.85155851775386" height="342.85155851775386" width="342.85155851775386"><g><svg></svg></g><g><svg viewBox="0 0 342.85155851775386 342.85155851775386" height="342.85155851775386" width="342.85155851775386"><g><path d="M0 171.426c0-94.676 76.75-171.426 171.426-171.426 94.676 0 171.426 76.75 171.426 171.426 0 94.676-76.75 171.426-171.426 171.426-94.676 0-171.426-76.75-171.426-171.426zM171.426 340.964c93.633 0 169.538-75.905 169.538-169.538 0-93.633-75.905-169.538-169.538-169.538-93.633 0-169.538 75.905-169.538 169.538 0 93.633 75.905 169.538 169.538 169.538z" data-fill-palette-color="tertiary" fill="#ffffff" stroke="transparent"></path><ellipse rx="164.56874808852186" ry="164.56874808852186" cx="171.42577925887693" cy="171.42577925887693" fill="#ffffff" stroke="transparent" stroke-width="0" fill-opacity="1" data-fill-palette-color="tertiary"></ellipse></g><g transform="matrix(1,0,0,1,64.84655864529837,95.90893699579308)"><svg viewBox="0 0 213.1584412271571 151.0336845261677" height="151.0336845261677" width="213.1584412271571"><g><svg viewBox="0 0 213.1584412271571 151.0336845261677" height="151.0336845261677" width="213.1584412271571"><g><svg viewBox="0 0 213.1584412271571 151.0336845261677" height="151.0336845261677" width="213.1584412271571"><g transform="matrix(1,0,0,1,0,112.22079594221255)"><svg viewBox="0 0 213.1584412271571 38.81288858395513" height="38.81288858395513" width="213.1584412271571"><g id="textblocktransform"><svg viewBox="0 0 213.1584412271571 38.81288858395513" height="38.81288858395513" width="213.1584412271571" id="textblock"><g><svg viewBox="0 0 213.1584412271571 20.933817483185766" height="20.933817483185766" width="213.1584412271571"><g transform="matrix(1,0,0,1,0,0)"><svg width="213.1584412271571" viewBox="3.450000047683716 -33.20000076293945 343.1199951171875 33.70000076293945" height="20.933817483185766" data-palette-color="#ffffff"><path d="M10.8-12L10.8-12 6.2-12 6.2 0 3.45 0 3.45-32.75 10.8-32.75Q16.8-32.75 19.68-30.48 22.55-28.2 22.55-22.6 22.55-17 19.65-14.5 16.75-12 10.8-12ZM10.8-30.25L10.8-30.25 6.2-30.25 6.2-14.5 10.8-14.5Q15.4-14.5 17.53-16.35 19.65-18.2 19.65-22.55 19.65-26.9 17.55-28.58 15.45-30.25 10.8-30.25ZM34.25-21.25L29.55-21.25 29.55-23.75 36.9-23.75 37-20.85Q38.6-21.85 41.5-22.85 44.4-23.85 46.6-24.05L46.6-24.05 46.6-21.1Q44.55-20.95 41.52-20.1 38.5-19.25 37-18.35L37-18.35 37-2.5 45-2.5 45 0 29.55 0 29.55-2.5 34.25-2.5 34.25-21.25ZM52.95-11.8Q52.95-24.05 62.5-24.05 72.05-24.05 72.05-11.8 72.05 0.45 62.5 0.45 52.95 0.45 52.95-11.8ZM62.5-21.45Q55.8-21.45 55.8-11.8 55.8-2.15 62.5-2.15 69.2-2.15 69.2-11.8 69.2-21.45 62.5-21.45ZM93.74-33.2L96.39-33.2 96.39-4.15 96.89 0.2 94.34 0.5 93.84-2.15Q90.09 0.45 86.94 0.45L86.94 0.45Q82.49 0.45 80.02-2.85 77.54-6.15 77.54-11.83 77.54-17.5 80.29-20.78 83.04-24.05 87.79-24.05L87.79-24.05Q90.59-24.05 93.74-22.7L93.74-22.7 93.74-33.2ZM80.39-11.9Q80.39-7.5 82.12-4.83 83.84-2.15 87.09-2.15 90.34-2.15 93.74-5L93.74-5 93.74-20Q92.69-20.5 90.87-20.98 89.04-21.45 87.89-21.45L87.89-21.45Q84.34-21.45 82.37-18.88 80.39-16.3 80.39-11.9ZM121.24 0L118.69 0 118.59-2.05Q113.79 0.45 110.59 0.45 107.39 0.45 105.54-1.75 103.69-3.95 103.69-7.75L103.69-7.75 103.69-23.75 106.34-23.75 106.34-7.75Q106.34-5.3 107.52-3.73 108.69-2.15 111.09-2.15 113.49-2.15 118.59-4.65L118.59-4.65 118.59-23.75 121.24-23.75 121.24 0ZM145.64-16L142.94-16 142.94-20.95Q140.49-21.5 139.04-21.5L139.04-21.5Q135.44-21.5 133.66-18.95 131.89-16.4 131.89-11.9 131.89-7.4 133.69-4.78 135.49-2.15 139.04-2.15L139.04-2.15Q141.29-2.15 145.29-3.55L145.29-3.55 146.04-1.05Q142.09 0.45 139.09 0.45L139.09 0.45Q134.19 0.45 131.61-2.83 129.04-6.1 129.04-11.95 129.04-17.8 131.59-20.93 134.14-24.05 139.09-24.05L139.09-24.05Q142.39-24.05 145.64-23L145.64-23 145.64-16ZM157.99-9.1L157.99-20.9 153.79-20.9 153.79-23.4 157.99-23.4 157.99-29.15 160.64-29.65 160.64-23.4 170.14-23.4 170.14-20.9 160.64-20.9 160.64-9.2Q160.64-5.3 161.41-3.7 162.19-2.1 164.59-2.1 166.99-2.1 169.89-3.05L169.89-3.05 170.49-0.55Q167.59 0.5 165.09 0.5 162.59 0.5 161.16-0.15 159.74-0.8 159.06-2.23 158.39-3.65 158.19-5.15 157.99-6.65 157.99-9.1L157.99-9.1ZM207.03 0L204.28 0 204.28-32.75 221.38-32.75 221.38-30.2 207.03-30.2 207.03-15.9 219.33-15.9 219.33-13.4 207.03-13.4 207.03 0ZM236.93-21.25L231.13-21.25 231.13-23.75 239.58-23.75 239.58-2.5 245.38-2.5 245.38 0 230.73 0 230.73-2.5 236.93-2.5 236.93-21.25ZM238.03-28.55Q237.13-28.55 236.5-29.18 235.88-29.8 235.88-30.78 235.88-31.75 236.5-32.33 237.13-32.9 238.03-32.9 238.93-32.9 239.5-32.35 240.08-31.8 240.08-30.8 240.08-29.8 239.5-29.18 238.93-28.55 238.03-28.55ZM253.78-23.75L256.33-23.75 256.43-21.75Q261.28-24.05 264.48-24.05 267.68-24.05 269.5-21.85 271.33-19.65 271.33-15.85L271.33-15.85 271.33 0 268.68 0 268.68-15.85Q268.68-18.3 267.48-19.9L267.48-19.9Q266.28-21.45 263.88-21.45 261.48-21.45 256.43-19.25L256.43-19.25 256.43 0 253.78 0 253.78-23.75ZM293.72-33.2L296.37-33.2 296.37-4.15 296.87 0.2 294.32 0.5 293.82-2.15Q290.07 0.45 286.92 0.45L286.92 0.45Q282.47 0.45 280-2.85 277.52-6.15 277.52-11.83 277.52-17.5 280.27-20.78 283.02-24.05 287.77-24.05L287.77-24.05Q290.57-24.05 293.72-22.7L293.72-22.7 293.72-33.2ZM280.37-11.9Q280.37-7.5 282.1-4.83 283.82-2.15 287.07-2.15 290.32-2.15 293.72-5L293.72-5 293.72-20Q292.67-20.5 290.85-20.98 289.02-21.45 287.87-21.45L287.87-21.45Q284.32-21.45 282.35-18.88 280.37-16.3 280.37-11.9ZM303.32-11.85Q303.32-17.6 305.7-20.83 308.07-24.05 312.62-24.05 317.17-24.05 319.4-21.05 321.62-18.05 321.62-13.05L321.62-13.05 321.47-10.55 306.17-10.55Q306.42-6.8 308.17-4.48 309.92-2.15 313-2.15 316.07-2.15 320.22-3.6L320.22-3.6 320.97-1.1Q316.92 0.45 313.37 0.45L313.37 0.45Q308.47 0.45 305.9-2.83 303.32-6.1 303.32-11.85ZM312.82-21.5L312.82-21.5Q306.52-21.5 306.17-13.05L306.17-13.05 318.77-13.05Q318.77-21.5 312.82-21.5ZM334.22-21.25L329.52-21.25 329.52-23.75 336.87-23.75 336.97-20.85Q338.57-21.85 341.47-22.85 344.37-23.85 346.57-24.05L346.57-24.05 346.57-21.1Q344.52-20.95 341.49-20.1 338.47-19.25 336.97-18.35L336.97-18.35 336.97-2.5 344.97-2.5 344.97 0 329.52 0 329.52-2.5 334.22-2.5 334.22-21.25Z" opacity="1" transform="matrix(1,0,0,1,0,0)" fill="#000000" class="wordmark-text-0" data-fill-palette-color="quaternary" id="text-0"></path></svg></g></svg></g><g transform="matrix(1,0,0,1,0,25.87578937934633)"><svg viewBox="0 0 213.1584412271571 12.937099204608803" height="12.937099204608803" width="213.1584412271571"><g transform="matrix(1,0,0,1,0,0)"><svg width="213.1584412271571" viewBox="2.4250001907348633 -36.959999084472656 621.89501953125 37.73999786376953" height="12.937099204608803" data-palette-color="#ffffff"><path d="M2.44-3.42L2.44-3.42 2.44-36.04Q2.44-36.87 6.25-36.87L6.25-36.87Q6.67-36.87 7.43-36.84 8.2-36.82 8.5-36.82L8.5-36.82Q10.42-36.82 14.25-36.89 18.07-36.96 20.02-36.96L20.02-36.96Q21.36-36.96 24.01-36.91 26.66-36.87 28.13-36.87L28.13-36.87Q28.32-36.87 28.71-36.89 29.1-36.91 29.3-36.91L29.3-36.91Q30.18-36.91 30.52-36.58 30.86-36.25 30.86-35.3L30.86-35.3 30.86-26.76Q29.44-26.64 27.91-26.6 26.37-26.56 24-26.54 21.63-26.51 21.04-26.51L21.04-26.51 17.68-26.51Q17.68-26.05 17.65-25.17 17.63-24.29 17.63-23.83L17.63-23.83 17.63-23.49Q17.68-23.39 17.68-23.14L17.68-23.14Q23.22-23.54 27.05-23.54L27.05-23.54Q28.2-23.54 29.09-23.36 29.98-23.19 29.98-22.85L29.98-22.85 29.98-14.7Q29.98-13.62 29.57-13.26 29.15-12.89 28.27-12.89L28.27-12.89Q28.08-12.89 27.56-12.94 27.05-12.99 26.76-12.99L26.76-12.99Q21.8-12.67 17.72-12.6L17.72-12.6Q17.72-11.11 17.8-8.11 17.87-5.1 17.87-3.61L17.87-3.61 17.87-0.59Q17.87 0.12 17.72 0.35 17.58 0.59 16.99 0.68L16.99 0.68Q14.65 0.68 10.06 0.73 5.47 0.78 3.13 0.78L3.13 0.78Q2.93 0.49 2.8 0.15 2.66-0.2 2.59-0.46 2.51-0.73 2.48-1.21 2.44-1.68 2.43-1.89 2.42-2.1 2.43-2.69 2.44-3.27 2.44-3.42ZM51.78 0.63L36.01 0.63Q36.11-6.47 36.35-9.77L36.35-9.77Q36.35-20.02 36.64-30.57L36.64-30.57Q36.55-32.62 36.55-33.59L36.55-33.59 36.55-34.33Q36.45-35.4 36.45-36.08L36.45-36.08Q36.45-36.55 36.89-36.91L36.89-36.91Q40.89-36.62 49.1-36.62L49.1-36.62Q51.05-36.62 51.78-36.72L51.78-36.72 51.78 0.63ZM83.93-33.59L92.28-33.59Q92.58-33.5 92.73-32.75 92.89-32.01 92.92-30.88 92.94-29.76 92.92-28.74 92.89-27.71 92.86-26.64 92.82-25.56 92.82-25.29L92.82-25.29Q92.77-24.32 92.77-22.56L92.77-22.56 92.77-19.97Q92.77-18.26 92.82-15.28 92.87-12.3 92.87-10.89L92.87-10.89 92.87-2Q92.77-1.17 91.5-1.17L91.5-1.17 77.83-1.17Q77.39-1.27 76.71-3.22L76.71-3.22Q76.24-4.52 75.16-7.47 74.07-10.42 73.29-12.66 72.51-14.89 71.87-16.99L71.87-16.99 71.87-17.14 71.87-16.99Q71.8-15.38 71.73-12.19 71.65-9.01 71.58-7.42L71.58-7.42 71.58-2.44Q71.58-1.71 71.41-1.43 71.24-1.15 70.5-0.98L70.5-0.98 60.45-0.98 59.37-2.05Q59.49-6.1 59.57-14.75 59.64-23.39 59.76-27.54L59.76-27.54 59.76-32.81Q60.01-33.69 60.35-33.69L60.35-33.69 60.35-33.59Q62.01-33.59 65.56-33.69 69.11-33.79 70.9-33.79L70.9-33.79 75-33.79Q75.02-33.79 75.07-33.76L75.07-33.76Q75.51-33.59 75.56-33.37L75.56-33.37 75.58-33.2Q76.46-30.83 77.37-28.3 78.27-25.76 79.51-22.16 80.76-18.55 81.25-17.19L81.25-17.19 81.25-20.8Q81.74-29.39 81.74-33.01L81.74-33.01Q81.74-33.4 82.27-33.5 82.81-33.59 83.93-33.59L83.93-33.59ZM108.08-33.89L114.33-33.89Q117.67-33.89 120.34-33.45 123.02-33.01 125.47-31.88 127.93-30.76 129.56-28.96 131.2-27.15 132.16-24.27 133.13-21.39 133.13-17.58L133.13-17.58Q133.13-14.79 132.47-12.39 131.81-9.99 130.66-8.25 129.51-6.52 128.04-5.16 126.56-3.81 124.82-2.95 123.09-2.1 121.36-1.64 119.62-1.17 117.89-1.07L117.89-1.07 101.14-1.07 101.14-33.5Q101.22-33.5 101.41-33.47 101.61-33.45 101.68-33.45L101.68-33.45Q102.73-33.45 104.87-33.67 107-33.89 108.08-33.89L108.08-33.89ZM113.45-8.69L114.62-8.69Q115.86-8.69 116.82-9.09 117.77-9.5 118.34-10.25 118.92-11.01 119.29-11.84 119.67-12.67 119.84-13.79 120.02-14.92 120.08-15.76 120.14-16.6 120.14-17.68L120.14-17.68 120.14-19.43Q120.11-19.6 119.99-21.09 119.87-22.58 119.45-23.63L119.45-23.63Q119.06-24.39 118.59-24.94 118.11-25.49 117.65-25.79 117.18-26.1 116.56-26.26 115.94-26.42 115.43-26.46 114.91-26.51 114.18-26.51L114.18-26.51 114.18-25.98 113.45-25.98 113.45-8.69ZM167.42-32.71L169.21-17.21Q169.65-18.99 170.02-21.24 170.4-23.49 170.65-25.24 170.89-27 171.22-29.55 171.55-32.1 171.77-33.59L171.77-33.59 185.83-33.59Q185.91-33.01 185.99-32.34 186.08-31.67 186.15-31.05 186.22-30.44 186.31-29.76 186.39-29.08 186.47-28.45 186.54-27.83 186.61-27.15 186.69-26.46 186.77-25.85 186.86-25.24 186.94-24.58 187.03-23.93 187.1-23.34L187.1-23.34 188.15-16.43 190.13-33.23Q190.18-33.37 190.31-33.47 190.45-33.57 190.69-33.63 190.93-33.69 191.15-33.73 191.37-33.76 191.75-33.78 192.13-33.79 192.35-33.79 192.57-33.79 192.99-33.79 193.4-33.79 193.55-33.79L193.55-33.79Q194.33-33.79 195.79-33.74 197.26-33.69 198.04-33.69L198.04-33.69Q198.14-33.69 198.55-33.72 198.97-33.74 199.21-33.74L199.21-33.74Q200.14-33.74 200.29-33.59L200.29-33.59Q200.41-33.59 200.71-33.62 201.02-33.64 201.16-33.64L201.16-33.64Q201.38-33.64 201.54-33.62 201.7-33.59 201.87-33.51 202.04-33.42 202.18-33.3 202.31-33.18 202.42-32.96 202.53-32.74 202.58-32.42L202.58-32.42 195.48-1.27 181.19-1.27 178.48-16.94 176.8-4Q176.77-3.86 176.66-3.2 176.56-2.54 176.49-2.29 176.43-2.05 176.29-1.64 176.14-1.22 175.92-1.05 175.7-0.88 175.38-0.88L175.38-0.88Q174.48-0.88 172.7-0.95 170.92-1.03 170.01-1.03L170.01-1.03Q168.45-1.03 165.91-0.95 163.37-0.88 162.2-0.88L162.2-0.88 161.42-0.88 154.92-31.23 155.07-32.96Q155.07-33.01 155.07-33.15 155.07-33.3 155.07-33.34 155.07-33.37 155.1-33.48 155.12-33.59 155.17-33.64 155.22-33.69 155.31-33.76 155.41-33.84 155.56-33.89L155.56-33.89Q156.24-33.79 156.58-33.79L156.58-33.79 158.2-33.79Q158.68-33.79 158.68-33.89L158.68-33.89 159.51-33.89Q159.61-33.89 159.87-33.91 160.12-33.94 160.34-33.94L160.34-33.94 161.03-33.94Q161.3-33.94 161.81-33.96 162.32-33.98 162.59-33.98L162.59-33.98 164.2-33.98 164.2-33.89 165.81-33.89Q166.59-33.89 167-33.65 167.4-33.42 167.42-32.71L167.42-32.71ZM238.91-32.57L238.91-32.57 238.91-2.54Q238.91-2.03 238.87-1.72 238.83-1.42 238.66-1.15 238.49-0.88 238.17-0.88L238.17-0.88 225.72-0.88 225.72-1.42Q225.67-1.46 225.35-1.64 225.02-1.81 224.94-1.95L224.94-1.95 224.94-11.82Q224.94-12.35 224.86-12.43 224.77-12.5 224.16-12.5L224.16-12.5 222.5-12.5Q221.91-12.5 221.13-12.4L221.13-12.4 221.13-1.86Q221.04-1.42 220.76-1.29 220.47-1.17 219.91-1.17L219.91-1.17 218.79-1.17Q217.64-1.17 215.19-1.12 212.74-1.07 211.47-1.07L211.47-1.07 208.24-1.07Q207.19-1.07 207.19-2.25L207.19-2.25 207.34-33.01Q207.34-33.13 207.41-33.22 207.49-33.3 207.71-33.46 207.93-33.62 207.95-33.64L207.95-33.64 221.08-33.64 221.08-23.14 225.33-23.14 225.33-33.89 237.78-33.89Q238.37-33.89 238.64-33.62 238.91-33.35 238.91-32.57ZM265.59-6.05L258.07-6.05Q257.9-5.49 257.74-4.58 257.58-3.66 257.45-3.14 257.31-2.61 257-2.04 256.68-1.46 256.03-1.2 255.39-0.93 254.36-0.93L254.36-0.93 243.81-0.93 243.81-1.76Q245.11-5.64 247.58-13.67 250.06-21.7 251.43-25.83L251.43-25.83 251.43-25.78Q252.26-28.15 253.87-33.2L253.87-33.2Q253.9-33.25 253.94-33.33L253.94-33.33Q254.16-33.69 254.36-33.89L254.36-33.89 267.54-33.79Q270.91-33.79 271.25-33.2L271.25-33.2 271.25-32.57Q271.3-32.35 271.79-31.45L271.79-31.45Q274.16-24.19 275.26-20.9L275.26-20.9 275.26-20.61Q275.36-19.9 275.7-18.99 276.04-18.09 276.52-17.05 276.99-16.02 277.19-15.43L277.19-15.43 278.16-11.91Q279.02-9.08 280.68-4.35L280.68-4.35 280.68-4.39 280.68-3.91Q280.75-3.56 281.04-2.98 281.34-2.39 281.41-2.15L281.41-2.15Q281.41-1.46 281.13-1.27 280.85-1.07 280.04-1.07L280.04-1.07 268.72-1.07Q268.3-1.12 268.18-1.15 268.06-1.17 267.8-1.25 267.54-1.32 267.43-1.44 267.32-1.56 267.3-1.76L267.3-1.76 266.37-5.47Q266.27-5.93 266.18-5.99 266.08-6.05 265.59-6.05L265.59-6.05ZM259.24-14.65L259.24-14.75 259.24-14.65ZM264.61-17.68L264.61-17.68Q264.47-18.36 264.19-19.89 263.91-21.41 263.64-22.55 263.37-23.68 263.05-24.66L263.05-24.66 263.05-25.83Q262.86-26.34 262.37-26.56L262.37-26.56 262.37-26.51Q261.78-26.39 261.2-23.24L261.2-23.24 261.2-22.07Q261.15-21.9 260.98-21.75 260.8-21.61 260.8-21.58L260.8-21.58Q260-18.02 259.49-15.82L259.49-15.82Q259.49-15.58 259.36-14.97 259.24-14.36 259.24-14.26L259.24-14.26 265.3-14.26Q265.3-14.89 264.86-16.55L264.86-16.55 264.86-17.09Q264.83-17.16 264.72-17.37 264.61-17.58 264.61-17.68ZM283.63-24.71L283.63-24.71 283.63-33.5 312.05-33.5Q312.44-33.42 312.54-33.19 312.63-32.96 312.63-32.52L312.63-32.52 312.63-24.71Q312.59-24.12 311.95-24.12L311.95-24.12 305.02-24.12 305.02-1.66Q305.02-1.64 304.99-1.54 304.97-1.44 304.97-1.42 304.97-1.39 304.94-1.32 304.92-1.25 304.9-1.22 304.87-1.2 304.85-1.14 304.82-1.07 304.79-1.06 304.75-1.05 304.69-1.01 304.63-0.98 304.57-0.95 304.5-0.93 304.42-0.92 304.33-0.9 304.24-0.88L304.24-0.88 302.67-0.88Q299.55-0.88 299.55-1.07L299.55-1.07Q299.35-1.07 298.96-1.05 298.57-1.03 298.38-1.03L298.38-1.03 296.42-1.03Q295.86-1.03 294.82-1 293.79-0.98 293.2-0.98L293.2-0.98 291.83-0.98 290.86-1.66 290.86-6.93Q290.88-8.35 291.06-12.99 291.25-17.63 291.25-20.31L291.25-20.31 291.25-20.95Q291.25-21.14 291.27-21.56 291.3-21.97 291.3-22.17L291.3-22.17Q291.3-22.39 291.27-23.06 291.25-23.73 291.25-23.93L291.25-23.93 285.14-23.93Q284.61-23.93 284.12-24.11 283.63-24.29 283.63-24.71ZM334.16-33.69L347.08-33.69 350.91-21.63Q352.77-26.59 354.38-31.54L354.38-31.54Q354.43-31.74 354.67-32.28 354.92-32.81 354.97-33.15L354.97-33.15Q355.16-33.74 357.6-33.74L357.6-33.74Q357.77-33.74 358.08-33.72 358.38-33.69 358.58-33.69L358.58-33.69Q362.56-33.74 367.17-33.79L367.17-33.79Q367.76-33.72 368-32.59L368-32.59 356.92-12.52 357.31-10.89Q357.31-9.47 357.36-6.57 357.41-3.66 357.41-2.54L357.41-2.54 357.41-1.81Q357.31-1.46 357.03-1.25 356.75-1.03 356.25-0.96 355.75-0.9 355.37-0.89 354.99-0.88 354.29-0.9 353.6-0.93 353.35-0.93L353.35-0.93 344.03-0.93 343.25-1.95 343.25-12.16 337.61-24.19 334.99-27.86Q332.99-31.86 332.99-33.01L332.99-33.01Q332.99-33.69 334.16-33.69L334.16-33.69ZM370.76-16.21L370.76-17.68 370.71-18.21Q371.17-22.19 371.59-23.75L371.59-23.75Q372.54-27.42 375.01-29.88L375.01-29.88 375.59-30.47Q376.77-31.84 379.16-32.81L379.16-32.81 380.09-32.81Q382.48-33.81 387.95-34.67L387.95-34.67Q389.31-34.67 390.82-34.46 392.32-34.25 394.15-33.78 395.98-33.3 397.68-32.26 399.37-31.23 400.5-29.79L400.5-29.79 400.5-29.1Q404.5-24.1 404.5-17.87L404.5-17.87Q404.5-10.86 401.28-6.45L401.28-6.45 400.3-5.22Q399.18-3.83 397.51-2.83 395.83-1.83 393.95-1.31 392.07-0.78 390.35-0.56 388.63-0.34 386.92-0.34L386.92-0.34Q384.41-0.34 382.12-0.94 379.84-1.54 377.85-2.81 375.86-4.08 374.35-5.93 372.84-7.79 371.9-10.41 370.96-13.04 370.76-16.21L370.76-16.21ZM384.19-18.55L384.19-17.48Q384.19-8.89 387.46-8.89L387.46-8.89Q388.36-8.89 389.03-9.23 389.71-9.57 390.12-10.28 390.54-10.99 390.8-11.72 391.07-12.45 391.18-13.55 391.29-14.65 391.33-15.48 391.37-16.31 391.37-17.48L391.37-17.48 391.37-18.36Q391.37-19.63 391.22-20.8 391.07-21.97 390.72-23.16 390.36-24.34 389.63-25.06 388.9-25.78 387.85-25.78L387.85-25.78Q384.19-25.78 384.19-18.55L384.19-18.55ZM410.97-27.93L410.97-27.88Q410.87-28.37 410.87-30.66L410.87-30.66Q410.87-33.3 411.36-33.79L411.36-33.79 424.64-33.79 424.64-13.28Q424.64-10.11 426.5-10.11L426.5-10.11Q427.28-10.11 427.79-10.8 428.3-11.5 428.3-12.45L428.3-12.45 428.3-16.06Q428.45-26.76 428.45-26.86L428.45-26.86Q428.45-31.1 428.35-33.01L428.35-33.01Q428.35-33.69 429.03-33.98L429.03-33.98 442.61-33.98 442.61-30.18Q442.29-20.92 442.22-18.26L442.22-18.26 442.22-16.75Q442.22-16.46 442.19-15.97 442.17-15.48 442.17-15.28L442.17-15.28Q442.17-14.45 442.22-14.11L442.22-14.11 442.22-12.21Q442.22-8.81 441.53-7.32L441.53-7.32 441.53-7.23Q440.75-5.4 439.29-4.06 437.82-2.73 435.94-1.99 434.06-1.25 432.09-0.92 430.11-0.59 427.91-0.59L427.91-0.59Q427.23-0.59 426.89-0.73L426.89-0.73 426.3-0.73Q426.3-0.49 425.57-0.49L425.57-0.49 425.57-0.44Q425.03-0.42 422.44-0.68L422.44-0.68 421.32-0.68Q419.78-0.85 418.35-1.37 416.93-1.88 415.58-2.82 414.24-3.76 413.23-5.05 412.21-6.35 411.58-8.2 410.94-10.06 410.87-12.26L410.87-12.26Q410.9-13.53 410.88-15.77 410.87-18.02 410.9-19.86 410.92-21.7 411.02-23.44L411.02-23.44 411.02-24.12Q411.02-24.24 411.04-24.51 411.07-24.78 411.07-24.9L411.07-24.9Q411.07-25.27 411.02-26 410.97-26.73 410.97-27.1L410.97-27.1 410.97-27.93ZM477.54-32.71L479.32-17.21Q479.76-18.99 480.14-21.24 480.52-23.49 480.77-25.24 481.01-27 481.34-29.55 481.67-32.1 481.89-33.59L481.89-33.59 495.95-33.59Q496.02-33.01 496.11-32.34 496.19-31.67 496.27-31.05 496.34-30.44 496.43-29.76 496.51-29.08 496.59-28.45 496.66-27.83 496.73-27.15 496.81-26.46 496.89-25.85 496.98-25.24 497.06-24.58 497.15-23.93 497.22-23.34L497.22-23.34 498.27-16.43 500.25-33.23Q500.3-33.37 500.43-33.47 500.56-33.57 500.81-33.63 501.05-33.69 501.27-33.73 501.49-33.76 501.87-33.78 502.25-33.79 502.47-33.79 502.69-33.79 503.1-33.79 503.52-33.79 503.67-33.79L503.67-33.79Q504.45-33.79 505.91-33.74 507.38-33.69 508.16-33.69L508.16-33.69Q508.26-33.69 508.67-33.72 509.09-33.74 509.33-33.74L509.33-33.74Q510.26-33.74 510.4-33.59L510.4-33.59Q510.53-33.59 510.83-33.62 511.14-33.64 511.28-33.64L511.28-33.64Q511.5-33.64 511.66-33.62 511.82-33.59 511.99-33.51 512.16-33.42 512.3-33.3 512.43-33.18 512.54-32.96 512.65-32.74 512.7-32.42L512.7-32.42 505.59-1.27 491.31-1.27 488.6-16.94 486.92-4Q486.89-3.86 486.78-3.2 486.67-2.54 486.61-2.29 486.55-2.05 486.4-1.64 486.26-1.22 486.04-1.05 485.82-0.88 485.5-0.88L485.5-0.88Q484.6-0.88 482.82-0.95 481.03-1.03 480.13-1.03L480.13-1.03Q478.57-1.03 476.03-0.95 473.49-0.88 472.32-0.88L472.32-0.88 471.54-0.88 465.04-31.23 465.19-32.96Q465.19-33.01 465.19-33.15 465.19-33.3 465.19-33.34 465.19-33.37 465.21-33.48 465.24-33.59 465.29-33.64 465.34-33.69 465.43-33.76 465.53-33.84 465.68-33.89L465.68-33.89Q466.36-33.79 466.7-33.79L466.7-33.79 468.31-33.79Q468.8-33.79 468.8-33.89L468.8-33.89 469.63-33.89Q469.73-33.89 469.99-33.91 470.24-33.94 470.46-33.94L470.46-33.94 471.15-33.94Q471.41-33.94 471.93-33.96 472.44-33.98 472.71-33.98L472.71-33.98 474.32-33.98 474.32-33.89 475.93-33.89Q476.71-33.89 477.12-33.65 477.52-33.42 477.54-32.71L477.54-32.71ZM536.33-6.05L528.81-6.05Q528.64-5.49 528.48-4.58 528.32-3.66 528.19-3.14 528.05-2.61 527.74-2.04 527.42-1.46 526.77-1.2 526.13-0.93 525.1-0.93L525.1-0.93 514.55-0.93 514.55-1.76Q515.85-5.64 518.32-13.67 520.8-21.7 522.17-25.83L522.17-25.83 522.17-25.78Q523-28.15 524.61-33.2L524.61-33.2Q524.64-33.25 524.68-33.33L524.68-33.33Q524.9-33.69 525.1-33.89L525.1-33.89 538.28-33.79Q541.65-33.79 541.99-33.2L541.99-33.2 541.99-32.57Q542.04-32.35 542.53-31.45L542.53-31.45Q544.9-24.19 546-20.9L546-20.9 546-20.61Q546.1-19.9 546.44-18.99 546.78-18.09 547.26-17.05 547.73-16.02 547.93-15.43L547.93-15.43 548.9-11.91Q549.76-9.08 551.42-4.35L551.42-4.35 551.42-4.39 551.42-3.91Q551.49-3.56 551.78-2.98 552.08-2.39 552.15-2.15L552.15-2.15Q552.15-1.46 551.87-1.27 551.59-1.07 550.78-1.07L550.78-1.07 539.46-1.07Q539.04-1.12 538.92-1.15 538.8-1.17 538.54-1.25 538.28-1.32 538.17-1.44 538.06-1.56 538.04-1.76L538.04-1.76 537.11-5.47Q537.01-5.93 536.92-5.99 536.82-6.05 536.33-6.05L536.33-6.05ZM529.98-14.65L529.98-14.75 529.98-14.65ZM535.35-17.68L535.35-17.68Q535.21-18.36 534.93-19.89 534.65-21.41 534.38-22.55 534.11-23.68 533.79-24.66L533.79-24.66 533.79-25.83Q533.6-26.34 533.11-26.56L533.11-26.56 533.11-26.51Q532.52-26.39 531.94-23.24L531.94-23.24 531.94-22.07Q531.89-21.9 531.72-21.75 531.54-21.61 531.54-21.58L531.54-21.58Q530.74-18.02 530.23-15.82L530.23-15.82Q530.23-15.58 530.1-14.97 529.98-14.36 529.98-14.26L529.98-14.26 536.04-14.26Q536.04-14.89 535.6-16.55L535.6-16.55 535.6-17.09Q535.57-17.16 535.46-17.37 535.35-17.58 535.35-17.68ZM580.88-33.59L589.23-33.59Q589.53-33.5 589.69-32.75 589.84-32.01 589.87-30.88 589.89-29.76 589.87-28.74 589.84-27.71 589.81-26.64 589.77-25.56 589.77-25.29L589.77-25.29Q589.72-24.32 589.72-22.56L589.72-22.56 589.72-19.97Q589.72-18.26 589.77-15.28 589.82-12.3 589.82-10.89L589.82-10.89 589.82-2Q589.72-1.17 588.45-1.17L588.45-1.17 574.78-1.17Q574.34-1.27 573.66-3.22L573.66-3.22Q573.19-4.52 572.11-7.47 571.02-10.42 570.24-12.66 569.46-14.89 568.82-16.99L568.82-16.99 568.82-17.14 568.82-16.99Q568.75-15.38 568.68-12.19 568.6-9.01 568.53-7.42L568.53-7.42 568.53-2.44Q568.53-1.71 568.36-1.43 568.19-1.15 567.46-0.98L567.46-0.98 557.4-0.98 556.32-2.05Q556.45-6.1 556.52-14.75 556.59-23.39 556.71-27.54L556.71-27.54 556.71-32.81Q556.96-33.69 557.3-33.69L557.3-33.69 557.3-33.59Q558.96-33.59 562.51-33.69 566.06-33.79 567.85-33.79L567.85-33.79 571.95-33.79Q571.97-33.79 572.02-33.76L572.02-33.76Q572.46-33.59 572.51-33.37L572.51-33.37 572.53-33.2Q573.41-30.83 574.32-28.3 575.22-25.76 576.47-22.16 577.71-18.55 578.2-17.19L578.2-17.19 578.2-20.8Q578.69-29.39 578.69-33.01L578.69-33.01Q578.69-33.4 579.22-33.5 579.76-33.59 580.88-33.59L580.88-33.59ZM595.31-24.71L595.31-24.71 595.31-33.5 623.73-33.5Q624.12-33.42 624.22-33.19 624.32-32.96 624.32-32.52L624.32-32.52 624.32-24.71Q624.27-24.12 623.63-24.12L623.63-24.12 616.7-24.12 616.7-1.66Q616.7-1.64 616.67-1.54 616.65-1.44 616.65-1.42 616.65-1.39 616.62-1.32 616.6-1.25 616.58-1.22 616.55-1.2 616.53-1.14 616.5-1.07 616.47-1.06 616.43-1.05 616.37-1.01 616.31-0.98 616.25-0.95 616.19-0.93 616.1-0.92 616.01-0.9 615.92-0.88L615.92-0.88 614.35-0.88Q611.23-0.88 611.23-1.07L611.23-1.07Q611.03-1.07 610.64-1.05 610.25-1.03 610.06-1.03L610.06-1.03 608.1-1.03Q607.54-1.03 606.51-1 605.47-0.98 604.88-0.98L604.88-0.98 603.51-0.98 602.54-1.66 602.54-6.93Q602.56-8.35 602.75-12.99 602.93-17.63 602.93-20.31L602.93-20.31 602.93-20.95Q602.93-21.14 602.95-21.56 602.98-21.97 602.98-22.17L602.98-22.17Q602.98-22.39 602.95-23.06 602.93-23.73 602.93-23.93L602.93-23.93 596.83-23.93Q596.29-23.93 595.8-24.11 595.31-24.29 595.31-24.71Z" opacity="1" transform="matrix(1,0,0,1,0,0)" fill="#000000" class="slogan-text-1" data-fill-palette-color="quaternary" id="text-1"></path></svg></g></svg></g></svg></g></svg></g><g transform="matrix(1,0,0,1,53.53580205747508,0)"><svg viewBox="0 0 106.08683711220695 107.27882404605198" height="107.27882404605198" width="106.08683711220695"><g><svg xmlns="http://www.w3.org/2000/svg" xmlns:xlink="http://www.w3.org/1999/xlink" version="1.1" x="0" y="0" viewBox="5.5 5 89 90" enable-background="new 0 0 100 100" xml:space="preserve" height="107.27882404605198" width="106.08683711220695" class="icon-icon-0" data-fill-palette-color="quaternary" id="icon-0"><path d="M92.46 29.21c1.28-1.74 2.04-3.88 2.04-6.2 0-0.13-0.01-0.27-0.04-0.4l-0.01-0.04-1.99-9.96C92.27 11.67 91.45 11 90.5 11h-80c-0.88 0-1.66 0.58-1.92 1.43l-2.99 9.98-0.01 0.02C5.52 22.62 5.5 22.81 5.5 23c0 2.86 1.15 5.45 3 7.34v57.08c0 1.1 0.9 2 2 2s2-0.9 2-2V32.9c1.09 0.39 2.27 0.6 3.5 0.6 3.5 0 6.6-1.72 8.5-4.35 1.9 2.63 5 4.35 8.5 4.35s6.6-1.72 8.5-4.35c1.9 2.63 5 4.35 8.5 4.35s6.6-1.72 8.5-4.35c1.9 2.63 5 4.35 8.5 4.35s6.6-1.72 8.5-4.35c1.9 2.63 5 4.35 8.5 4.35 1.61 0 3.14-0.36 4.5-1.02v54.94c0 1.1 0.9 2 2 2s2-0.9 2-2v-57.8c0-0.14-0.01-0.27-0.04-0.4C92.46 29.21 92.46 29.21 92.46 29.21zM84 29.5c-3.58 0-6.5-2.92-6.5-6.5 0-1.1-0.9-2-2-2s-2 0.9-2 2c0 3.58-2.92 6.5-6.5 6.5s-6.5-2.92-6.5-6.5c0-1.1-0.9-2-2-2s-2 0.9-2 2c0 3.58-2.92 6.5-6.5 6.5s-6.5-2.92-6.5-6.5c0-1.1-0.9-2-2-2s-2 0.9-2 2c0 3.58-2.92 6.5-6.5 6.5s-6.5-2.92-6.5-6.5c0-1.1-0.9-2-2-2s-2 0.9-2 2c0 3.58-2.92 6.5-6.5 6.5-3.49 0-6.36-2.78-6.49-6.24L11.99 15h76.87l1.63 8.16C90.41 26.67 87.53 29.5 84 29.5zM92.5 25.5M75.5 25.5M92.5 25.5M7.5 25.5M88.5 9h-76c-1.104 0-2-0.896-2-2s0.896-2 2-2h76c1.104 0 2 0.896 2 2S89.604 9 88.5 9zM92.5 95h-85c-1.104 0-2-0.896-2-2s0.896-2 2-2h85c1.104 0 2 0.896 2 2S93.604 95 92.5 95zM38.5 87.208h-20c-1.104 0-2-0.896-2-2v-42c0-1.104 0.896-2 2-2h20c1.104 0 2 0.896 2 2v42C40.5 86.312 39.604 87.208 38.5 87.208zM20.5 83.208h16v-38h-16V83.208zM82.5 87.208h-36c-1.104 0-2-0.896-2-2v-42c0-1.104 0.896-2 2-2h36c1.104 0 2 0.896 2 2v42C84.5 86.312 83.604 87.208 82.5 87.208zM48.5 83.208h32v-38h-32V83.208zM33.75 66.208c0 1.105-0.895 2-2 2-1.105 0-2-0.895-2-2s0.895-2 2-2C32.855 64.208 33.75 65.104 33.75 66.208zM58.539 68.669c-0.512 0-1.023-0.195-1.414-0.586-0.781-0.781-0.781-2.048 0-2.828l4.922-4.921c0.781-0.781 2.047-0.781 2.828 0s0.781 2.048 0 2.828l-4.922 4.921C59.562 68.474 59.051 68.669 58.539 68.669zM65.539 68.669c-0.512 0-1.023-0.195-1.414-0.586-0.781-0.781-0.781-2.048 0-2.828l4.922-4.921c0.781-0.781 2.047-0.781 2.828 0s0.781 2.048 0 2.828l-4.922 4.921C66.562 68.474 66.051 68.669 65.539 68.669z" fill="#000000" data-fill-palette-color="quaternary"></path></svg></g></svg></g><g></g></svg></g></svg></g></svg></g></svg></g><defs></defs></svg><rect width="342.85155851775386" height="342.85155851775386" fill="none" stroke="none" visibility="hidden"></rect></g></svg></g></svg>